# xmcd CD database file
#
# Track frame offsets:
#	150
#	16514
#	34070
#	46396
#	67257
#	91188
#	111849
#	124285
#	142665
#	156099
#
# Disc length: 2270 seconds
#
# Revision: 1
# Processed by: cddbd v1.5.1PL0 Copyright (c) Steve Scherf et al.
# Submitted via: jetAudio 5
#
DISCID=7b08dc0a
DTITLE=Lefty Dizz - Chicago Blues Festival 1979
DYEAR=1900
DGENRE=
TTITLE0=Blue Shadow
TTITLE1=Take Out Some Insurance
TTITLE2=R.M. Blues
TTITLE3=Cummins Prison Farm
TTITLE4=I Found Out
TTITLE5=Things That I Used To Do
TTITLE6=Moose Boogie
TTITLE7=One Eyed Woman
TTITLE8=All Right OK You Win
TTITLE9=Lake Shore Drive Boogie
EXTD=
EXTT0=
EXTT1=
EXTT2=
EXTT3=
EXTT4=
EXTT5=
EXTT6=
EXTT7=
EXTT8=
EXTT9=
PLAYORDER=
